<svg xmlns="http://www.w3.org/2000/svg" viewBox="0 0 174 72">
  <symbol id="logo" viewBox="0 0 174 72">
    <path d="M35.5117 30.8867C35.4825 30.8574 35.4825 30.8867 35.5117 30.8867C35.4825 30.8574 35.4825 30.8574 35.4825 30.8574C35.4825 30.8574 33.4426 29.1596 30.8491 28.5741C30.2663 28.457 29.6543 28.3692 29.0423 28.3107C27.4979 28.1936 25.9534 28.3399 24.8752 28.4863C23.9426 28.6034 23.3307 28.7498 23.3307 28.7498C20.912 29.2767 18.7847 29.9207 16.9196 30.6525C16.5116 30.4183 15.958 30.0378 15.3169 29.5401C14.9672 29.2767 14.6175 28.9547 14.2095 28.6034C11.2954 25.9688 7.09906 20.8753 3.95182 11.625C3.95182 11.625 -6.56812 23.0415 6.72023 36.2144C6.86593 36.3608 7.01164 36.4779 7.15735 36.6242C7.33219 36.7999 7.53618 36.9755 7.71103 37.1512C0.338322 46.782 9.57606 59.2231 21.6696 52.4317C21.4656 52.5195 21.2617 52.5781 21.0868 52.6366C11.7908 56.969 3.89354 47.5431 12.1113 40.0492C12.1988 40.3126 12.3153 40.6054 12.461 40.8981C21.4656 59.5451 34.142 51.4364 34.142 51.4364C23.9135 44.8793 21.2908 35.6875 21.2908 35.6875C21.2908 35.4826 21.2908 35.3069 21.3199 35.102C24.8752 33.9311 29.3046 32.9944 34.7249 32.4967C36.1819 32.3504 35.6865 31.1502 35.5117 30.8867Z" fill="#3CBFEB"/>
    <path d="M35.4825 30.8574C35.5117 30.8867 35.5117 30.8867 35.5117 30.8867C35.7156 31.1502 36.1819 32.3503 34.6374 32.4967C-3.01292 36.0973 7.50703 58.9303 21.0577 52.6366C21.2616 52.5781 21.4656 52.4902 21.6405 52.4317C23.4181 51.7291 25.1666 50.5875 26.8859 48.8604C28.2555 47.4845 29.392 45.9623 30.2663 44.4109C32.3061 40.7517 32.9764 36.7999 32.1313 33.4627C33.2386 33.3164 34.2003 33.2285 34.8997 33.0822C36.4442 32.7016 36.2985 31.4722 35.4825 30.8574ZM29.1006 33.8433C29.2755 33.814 29.4794 33.7847 29.6543 33.7555C30.4702 36.4486 29.9166 39.493 28.8383 42.1568C28.5469 42.8301 28.2555 43.5034 27.9058 44.0889C27.4978 44.7914 27.0607 45.4354 26.6236 46.0209C22.6021 41.6592 20.9994 37.4439 20.5623 36.1266C22.9227 35.2191 25.7494 34.4287 29.1006 33.8433ZM15.346 38.7612C18.3184 45.8745 22.4856 47.5138 25.2248 47.748C25.1957 47.7773 25.1957 47.8065 25.1666 47.8065C13.6267 57.5252 4.03924 46.4307 15.346 38.7612Z" fill="#074793"/>
    <path d="M19.2511 28.1935C20.7955 27.8715 22.952 27.8715 24.817 28.4863H24.8462C25.9244 28.3399 27.4689 28.1935 29.0133 28.3106C25.1667 25.3541 19.3385 25.5882 14.1514 28.6034C14.5593 28.9546 14.909 29.2767 15.2587 29.5401C16.6284 28.8961 17.9689 28.457 19.2511 28.1935Z" fill="#074793"/>
    <path d="M4.68018 41.5715C5.32128 39.7273 6.13723 38.088 7.09889 36.6243C6.95318 36.4779 6.80748 36.3608 6.66177 36.2145C5.70011 37.9416 5.02987 39.7858 4.68018 41.5715Z" fill="#074793"/>
    <path d="M6.45792 43.0643C6.31222 43.035 6.13737 43.1228 6.10823 43.2692C6.07909 43.4156 6.13737 43.5912 6.31222 43.6498C6.45792 43.679 6.60363 43.5912 6.66191 43.4448C6.69105 43.2692 6.60363 43.0936 6.45792 43.0643ZM7.53615 40.6346C7.3613 40.5761 7.18645 40.6932 7.12817 40.8688C7.06989 41.0444 7.18645 41.2494 7.33216 41.3079C7.507 41.3664 7.68185 41.2494 7.74013 41.0737C7.79842 40.8981 7.71099 40.6932 7.53615 40.6346ZM9.02234 38.4099C8.81835 38.3513 8.58523 38.4684 8.52694 38.7026C8.46866 38.9368 8.58523 39.171 8.78921 39.2295C8.9932 39.2881 9.22633 39.171 9.28461 38.9368C9.3429 38.7026 9.22633 38.4684 9.02234 38.4099ZM20.7954 31.1501C20.5914 31.0916 20.3582 31.2087 20.2708 31.4721C20.2125 31.7063 20.3291 31.9405 20.5331 31.9991C20.7662 32.0576 20.9702 31.9112 21.0576 31.677C21.1451 31.4429 21.0285 31.2087 20.7954 31.1501ZM23.5346 30.4183C23.3306 30.3598 23.0975 30.5061 23.0101 30.7403C22.9518 30.9745 23.0684 31.2087 23.2724 31.2672C23.4763 31.3258 23.7095 31.1794 23.7969 30.9745C23.8843 30.7403 23.7386 30.4769 23.5346 30.4183Z" fill="#074793"/>
    <path d="M34.7831 30.3598C32.7432 30.4476 31.665 30.5647 30.5285 30.2134C29.0714 29.7451 29.2754 29.5694 29.2754 29.5694C29.4211 29.3938 30.7033 29.101 32.6266 29.1596C32.6266 29.1596 33.326 29.4523 33.8505 29.7743C34.3459 30.0378 34.7831 30.3598 34.7831 30.3598Z" fill="#074793"/>
    <path d="M17.7941 32.2918C17.7941 32.2918 9.37231 26.5543 6.4582 19.88C6.4582 19.88 2.11617 29.1596 12.6944 36.5364C12.7235 36.5364 18.1438 34.1653 17.7941 32.2918Z" fill="#074793"/>
    <path d="M35.4825 30.8577C35.4531 30.828 35.4531 30.828 35.4825 30.8577C35.4531 30.828 35.4825 30.8577 35.4825 30.8577Z" fill="#074793"/>
    <path d="M82.5746 30.8476C81.1523 30.005 79.5111 29.6387 77.9064 29.6387H77.87C76.2653 29.6387 74.6242 30.005 73.2018 30.8476C72.3995 31.3239 71.8889 31.91 71.5972 32.5695V42.9005C71.8889 43.56 72.3995 44.1828 73.2018 44.6224C76.8488 46.7839 81.9546 45.8313 83.9969 43.5966C83.9969 43.5966 84.5075 42.9738 83.8146 42.1678C82.6475 40.7757 82.2464 41.1421 82.2464 41.1421C79.4017 43.8897 75.463 42.5708 75.2806 41.9847C75.2441 41.8748 75.1712 41.6183 75.1712 41.3985V39.4569C76.0465 39.7133 76.9582 39.8232 77.8335 39.8232H77.87C79.4747 39.8232 81.1158 39.4569 82.5381 38.6142C83.3405 38.138 83.851 37.5518 84.1428 36.8558V32.6061C83.8875 31.91 83.3769 31.3239 82.5746 30.8476ZM80.5687 35.3904C80.5687 35.6102 80.4958 35.8666 80.4593 35.9765C80.3864 36.2696 79.2923 36.7459 77.87 36.7825C76.4477 36.7459 75.3536 36.233 75.2806 35.9765C75.2441 35.8666 75.1712 35.6102 75.1712 35.3904V34.0715C75.1712 33.8517 75.2441 33.5953 75.2806 33.4853C75.3536 33.1923 76.4477 32.716 77.87 32.6794C79.2923 32.716 80.3864 33.2289 80.4593 33.4853C80.4958 33.5953 80.5687 33.8517 80.5687 34.0715V35.3904Z" fill="#094695"/>
    <path d="M99.0222 31.8735C99.0222 31.8735 98.5116 32.4963 99.2045 33.3022C100.372 34.6944 100.773 34.328 100.773 34.328C102.122 33.0091 103.69 32.6428 105.04 32.6428C106.499 32.6428 107.848 33.119 107.848 33.7052V35.9766C104.639 35.0973 101.867 35.9766 100.445 36.8192C99.6422 37.2954 99.1316 37.8816 98.8398 38.5777V42.9006C99.1316 43.56 99.6422 44.1828 100.445 44.6224C103.143 46.2344 107.082 46.271 109.854 44.6224C110.656 44.1462 111.167 43.56 111.458 42.9006V32.5695C109.307 28.503 101.393 29.0526 99.0222 31.8735ZM107.848 41.3986C107.848 41.6184 107.775 41.8748 107.738 41.9847C107.666 42.2778 106.571 42.7541 105.149 42.7907C103.727 42.7541 102.633 42.2412 102.56 41.9847C102.523 41.8748 102.45 41.6184 102.45 41.3986V40.0797C102.45 39.8599 102.523 39.6034 102.56 39.4935C102.633 39.2005 103.727 38.7242 105.149 38.6876C106.571 38.7242 107.666 39.2371 107.738 39.4935C107.775 39.6034 107.848 39.8599 107.848 40.0797V41.3986Z" fill="#094695"/>
    <path d="M97.7093 30.2249C97.6728 30.115 97.5999 30.005 97.527 29.9684C97.454 29.9318 97.3446 29.8951 97.2717 29.8951H85.8931C85.7837 29.8951 85.7107 29.9318 85.6378 29.9684C85.5649 30.005 85.4919 30.115 85.4554 30.2249C85.419 30.3348 85.346 30.5179 85.346 30.7377C85.3096 30.9576 85.3096 31.214 85.3096 31.5437C85.3096 31.8734 85.3096 32.1299 85.346 32.3497C85.3825 32.5695 85.419 32.716 85.4554 32.8626C85.4919 32.9725 85.5649 33.0824 85.6378 33.119C85.7107 33.1557 85.8201 33.1923 85.8931 33.1923H89.7224V45.0254C89.7224 45.1353 89.7589 45.2086 89.7954 45.2818C89.8683 45.3551 89.9412 45.4284 90.0871 45.465C90.233 45.5017 90.4153 45.5383 90.6342 45.5749C90.853 45.6116 91.1812 45.6116 91.5094 45.6116C91.8741 45.6116 92.1659 45.6116 92.3847 45.5749C92.6035 45.5383 92.8224 45.5017 92.9682 45.465C93.1141 45.4284 93.2235 45.3551 93.26 45.2818C93.3329 45.2086 93.3329 45.1353 93.3329 45.0254V33.1557H97.1623C97.2717 33.1557 97.3446 33.119 97.4175 33.0824C97.4905 33.0458 97.5634 32.9358 97.5999 32.8259C97.6364 32.716 97.7093 32.5329 97.7093 32.3131C97.7458 32.0932 97.7458 31.8368 97.7458 31.5071C97.7458 31.1774 97.7458 30.9209 97.7093 30.7011C97.7823 30.5179 97.7458 30.3714 97.7093 30.2249Z" fill="#094695"/>
    <path d="M69.8102 30.7377C69.7737 30.5179 69.7373 30.3714 69.7008 30.2249C69.6643 30.115 69.5914 30.005 69.5184 29.9684C69.4455 29.9318 69.3361 29.8951 69.2632 29.8951H62.2245C59.6351 29.8951 59.5986 30.6645 59.4163 32.7527C59.0881 36.4894 58.7234 40.5926 55.9881 42.9372C55.9152 43.0105 55.8787 43.0837 55.8423 43.1937C55.8058 43.3036 55.8423 43.4135 55.8787 43.56C55.9152 43.7065 56.0246 43.8897 56.134 44.0729C56.2434 44.2561 56.4258 44.5125 56.6811 44.8056C56.8999 45.0987 57.0093 45.1353 57.1552 45.3185C57.3375 45.5017 57.4834 45.6116 57.6293 45.6848C57.7752 45.7581 57.8846 45.7947 57.994 45.7581C58.1034 45.7581 58.2128 45.6848 58.2857 45.6116C61.7504 43.0471 62.4433 38.4311 62.9903 34.5844C63.0633 34.1082 62.9903 33.1557 63.9021 33.1557H66.2362V45.0254C66.2362 45.1353 66.2726 45.2086 66.3091 45.2818C66.382 45.3551 66.455 45.4284 66.6009 45.465C66.7467 45.5017 66.9291 45.5383 67.1479 45.5749C67.3667 45.6116 67.695 45.6116 68.0232 45.6116C68.3879 45.6116 68.6796 45.6116 68.8985 45.5749C69.1173 45.5383 69.3361 45.5017 69.482 45.465C69.6279 45.4284 69.7373 45.3551 69.7737 45.2818C69.8467 45.2086 69.8467 45.1353 69.8467 45.0254V31.4704C69.8831 31.1774 69.8467 30.9209 69.8102 30.7377Z" fill="#094695"/>
    <path d="M124.77 30.2249C124.734 30.115 124.661 30.005 124.588 29.9684C124.515 29.9318 124.406 29.8951 124.333 29.8951H112.954C112.845 29.8951 112.772 29.9318 112.699 29.9684C112.626 30.005 112.553 30.115 112.516 30.2249C112.48 30.3348 112.407 30.5179 112.407 30.7377C112.371 30.9576 112.371 31.214 112.371 31.5437C112.371 31.8734 112.371 32.1299 112.407 32.3497C112.444 32.5695 112.48 32.716 112.516 32.8626C112.553 32.9725 112.626 33.0824 112.699 33.119C112.772 33.1557 112.881 33.1923 112.954 33.1923H116.783V45.0254C116.783 45.1353 116.82 45.2086 116.856 45.2818C116.929 45.3551 117.002 45.4284 117.148 45.465C117.294 45.5017 117.476 45.5383 117.695 45.5749C117.914 45.6116 118.242 45.6116 118.57 45.6116C118.935 45.6116 119.227 45.6116 119.446 45.5749C119.665 45.5383 119.883 45.5017 120.029 45.465C120.175 45.4284 120.285 45.3551 120.321 45.2818C120.394 45.2086 120.394 45.1353 120.394 45.0254V33.1557H124.223C124.333 33.1557 124.406 33.119 124.479 33.0824C124.552 33.0458 124.624 32.9358 124.661 32.8259C124.697 32.716 124.77 32.5329 124.77 32.3131C124.807 32.0932 124.807 31.8368 124.807 31.5071C124.807 31.1774 124.807 30.9209 124.77 30.7011C124.88 30.5179 124.843 30.3714 124.77 30.2249Z" fill="#094695"/>
    <path d="M136.915 36.8924C135.492 36.0498 132.794 35.2072 129.621 36.0132V30.4813C129.621 30.3714 129.584 30.2981 129.548 30.2249C129.475 30.1516 129.402 30.0783 129.256 30.0417C129.11 30.005 128.928 29.9684 128.709 29.9318C128.49 29.8951 128.162 29.8951 127.834 29.8951C127.469 29.8951 127.177 29.8951 126.958 29.9318C126.74 29.9684 126.521 30.005 126.375 30.0417C126.229 30.0783 126.12 30.1516 126.083 30.2249C126.01 30.2981 126.01 30.3714 126.01 30.4813V42.9738C126.302 43.6333 126.813 44.2561 127.615 44.6957C130.387 46.3443 134.325 46.3076 137.024 44.6957C137.826 44.2194 138.337 43.6333 138.629 42.9738V38.6143C138.228 37.9548 137.717 37.3687 136.915 36.8924ZM134.909 41.4352C134.909 41.655 134.836 41.9114 134.799 42.0213C134.727 42.3144 133.632 42.7907 132.21 42.8273C130.788 42.7907 129.694 42.2778 129.621 42.0213C129.584 41.9114 129.511 41.655 129.511 41.4352V40.1163C129.511 39.8965 129.584 39.6401 129.621 39.5301C129.694 39.2371 130.788 38.7608 132.21 38.7242C133.632 38.7608 134.727 39.2737 134.799 39.5301C134.836 39.6401 134.909 39.8965 134.909 40.1163V41.4352Z" fill="#094695"/>
    <path d="M48.767 32.679C50.0799 32.679 51.6846 33.0454 53.034 34.3642C53.034 34.3642 53.4351 34.694 54.6022 33.3385C55.2951 32.5325 54.7845 31.9097 54.7845 31.9097C52.414 29.0888 44.7553 28.1363 42.3848 33.5949V41.9477C44.7553 47.4429 52.414 46.4538 54.7845 43.6329C54.7845 43.6329 55.2951 43.0101 54.6022 42.2041C53.4351 40.812 53.034 41.1784 53.034 41.1784C51.6846 42.4972 50.1164 42.8636 48.767 42.8636C47.3082 42.8636 45.9588 41.6546 45.9588 41.0684V34.4375C45.9953 33.888 47.3082 32.679 48.767 32.679Z" fill="#094695"/>
    <path d="M171.962 30.225C171.889 30.1517 171.816 30.0784 171.67 30.0418C171.525 30.0052 171.342 29.9685 171.123 29.9319C170.905 29.8953 170.576 29.8953 170.212 29.8953C169.847 29.8953 169.555 29.8953 169.3 29.9319C169.081 29.9685 168.862 30.0052 168.753 30.0418C168.607 30.0784 168.498 30.1517 168.461 30.225C168.388 30.2982 168.388 30.3715 168.388 30.4814V42.0215C168.279 42.3145 167.221 42.7908 165.799 42.8274C164.377 42.7908 163.282 42.3145 163.209 42.0215V30.4814C163.209 30.3715 163.173 30.2982 163.137 30.225C163.064 30.1517 162.991 30.0784 162.845 30.0418C162.699 30.0052 162.517 29.9685 162.298 29.9319C162.079 29.8953 161.751 29.8953 161.386 29.8953C161.021 29.8953 160.73 29.8953 160.474 29.9319C160.255 29.9685 160.037 30.0052 159.927 30.0418C159.781 30.0784 159.672 30.1517 159.635 30.225C159.563 30.2982 159.562 30.3715 159.562 30.4814V42.9373C159.854 43.5968 160.365 44.2196 161.167 44.6958C162.59 45.5384 164.231 45.9048 165.835 45.9048H165.872C166.747 45.9048 167.659 45.7949 168.534 45.5384V46.1612C168.534 46.7474 165.361 47.9197 162.407 47.59C162.115 47.5533 162.042 47.7731 161.97 48.1395C161.897 48.5425 161.751 49.2385 161.605 49.8613C161.532 50.1911 161.532 50.4841 161.824 50.5574C164.814 50.9238 169.956 50.4475 172.108 47.3702V30.4814C172.035 30.3715 171.999 30.2982 171.962 30.225Z" fill="#F6A70E"/>
    <path d="M143.297 42.4244C143.151 42.3877 142.969 42.3145 142.75 42.3145C142.531 42.2778 142.203 42.2778 141.838 42.2778C141.473 42.2778 141.182 42.2778 140.926 42.3145C140.708 42.3511 140.489 42.3877 140.379 42.4244C140.233 42.461 140.124 42.5343 140.088 42.6075C140.015 42.6808 140.015 42.7907 140.015 42.864V45.2819C140.015 45.3918 140.051 45.4651 140.088 45.5383C140.161 45.6116 140.233 45.6849 140.379 45.7215C140.525 45.7582 140.708 45.7948 140.926 45.8314C141.145 45.8681 141.473 45.8681 141.838 45.8681C142.203 45.8681 142.495 45.8681 142.75 45.8314C142.969 45.7948 143.188 45.7582 143.297 45.7215C143.443 45.6849 143.552 45.6116 143.589 45.5383C143.662 45.4651 143.662 45.3918 143.662 45.2819V42.864C143.662 42.7541 143.625 42.6808 143.589 42.6075C143.552 42.5343 143.443 42.461 143.297 42.4244Z" fill="#F6A70E"/>
    <path d="M156.134 30.8477C153.362 29.1992 149.424 29.2358 146.725 30.8477C145.922 31.324 145.412 31.9101 145.12 32.5696V50.0445C145.12 50.3376 145.412 50.5207 146.068 50.594C146.287 50.6306 146.615 50.6306 146.944 50.6306C147.308 50.6306 147.6 50.6306 147.819 50.594C148.512 50.5207 148.658 50.2643 148.658 50.0445V45.5384C151.065 46.2344 153.909 45.978 156.061 44.6958C156.863 44.2195 157.374 43.6333 157.666 42.9739V32.6062C157.447 31.9101 156.936 31.324 156.134 30.8477ZM154.128 40.8125V41.4352C154.128 41.6551 154.055 41.9115 154.019 42.0214C153.946 42.3145 152.852 42.7907 151.429 42.8274C150.007 42.7907 148.913 42.2779 148.84 42.0214C148.804 41.9115 148.731 41.6551 148.731 41.4352V40.8491V34.0716C148.731 33.8518 148.804 33.5954 148.84 33.4855C148.913 33.1924 150.007 32.7161 151.429 32.6795C152.852 32.7161 153.946 33.229 154.019 33.4855C154.055 33.5954 154.128 33.8518 154.128 34.0716V40.8125Z" fill="#F6A70E"/>
  </symbol>
</svg>